<svg xmlns="http://www.w3.org/2000/svg" width="800.321" height="622.137" viewBox="0 0 800.321 622.137" xmlns:xlink="http://www.w3.org/1999/xlink" role="img" artist="Katerina Limpitsouni" source="https://undraw.co/"><g transform="translate(-821.753 -211.925)"><g transform="translate(821.753 250.156)"><path d="M354.039,190.979c.864,2.014,27.513,1.8,28.734,3.592,9.41,13.846-24.512,72.758-15.1,86.622l1.311,1.562c-3.07-1.415-20.331-14.554-29.721-20.185a58.9,58.9,0,0,0-13.014-10.713Z" transform="translate(-243.015 -151.626)" fill="#090814"/><path d="M191.017,311.21a22.071,22.071,0,0,1,33.438,13.056l40.5,105.519,69.61-39.519A21.551,21.551,0,1,1,348.007,411.7c-14.659,15.646-78.212,79.793-104.523,54.729-22.115-21.067-54.03-102.716-61.713-130.911a22.074,22.074,0,0,1,9.245-24.307Z" transform="translate(-99.344 -158.38)" fill="#ed9da0"/><path d="M34.528.994,0,0V49.931H39.688Z" transform="translate(70.066 96.724)" fill="#ed9da0"/><path d="M232.158,349.883l-12.78,57.762L125.929,416.1,117.341,365.8Z" transform="translate(-64.443 -37.413)" fill="#ed9da0"/><path d="M232.564,631.391c.043.828.094,1.648.154,2.476.9,11.968,1.921,25.772,3.031,40.9,1.75,24.005,3.7,51.339,5.677,79.937h196.01L399.42,640.443s-15.349-8.451-7.535-22.647-7.562-2.883-7.7-23.158-13.921-41.844-13.921-41.844L368,522.1l-1.289.026-102,1.7-1.861.034-3.133,26.353A116.508,116.508,0,0,0,232.564,631.391Z" transform="translate(-207.593 -170.797)" fill="#090814"/><path d="M399.235,281.569l-46.514-2.4-21.6,34.138s-40.649,6.8-37.832,54.7,49.458,89.933,49.458,89.933L344.212,461l-.444,5.555-1.025,21.595h0a5.5,5.5,0,0,0,5.216,8.385c68.739-10.945,71.048,7.477,108.75-10.76v-6.317c1.784-6.5-.32-33.109-6.6-42.414,0,0,30.577-45.938-4.525-80.539L431.5,332.554l-15.764-19.232Z" transform="translate(-289.845 -156.732)" fill="#6c63ff"/><ellipse cx="44.108" cy="44.108" rx="44.108" ry="44.108" transform="translate(53.706 16.468)" fill="#ed9da0"/><path d="M351.855,278.317s4.705,3.5,6.9,5.046c1.659-4.266,13.272,8.732,16.342,10.147l-1.311-1.562c-9.41-13.864,14.942-39.383,5.531-53.229-2.64-3.879,9.285-34.534,18.372-35.917,8.081-1.221,7.74,1.113,15.57,2.82a39.183,39.183,0,0,1,3.753-9.716,32.1,32.1,0,0,0,.305,10.236c2.784.108,4.974-1.666,7.938-2.119,18.911-2.891,16.989-23.346,11.727-29.829-5.28-6.465-22.807-8.4-30.889-10.506-.736-.718-2.406-.269-3.143-.952-15.487-14.174-36.2-16.521-54.841-10.239-19.878,6.7-32.272,19.666-38.633,39.655l-1.824,16c-1.637,5.143.422,29.075,1.824,34.288C314.923,262.7,351.855,278.317,351.855,278.317Z" transform="translate(-281.059 -149.207)" fill="#090814"/><path d="M422.492,493.136,424.229,357.9a21.831,21.831,0,0,1,21.828-21.486h0a21.831,21.831,0,0,1,21.8,22.989l-6.11,140.427-.116,85.485a19.051,19.051,0,1,1-23.389,7.123Z" transform="translate(-422.492 -160.046)" fill="#ed9da0"/></g><g transform="translate(1133.993 211.925)"><path d="M782.963,183.6,299.428,241.767a.291.291,0,0,1-.164-.028.376.376,0,0,1-.134-.113.574.574,0,0,1-.09-.18.786.786,0,0,1-.033-.23.871.871,0,0,1,.033-.238.759.759,0,0,1,.092-.2.54.54,0,0,1,.134-.145.352.352,0,0,1,.164-.067L782.963,181.6a1.282,1.282,0,0,1,.455.023,1.037,1.037,0,0,1,.372.17.849.849,0,0,1,.251.288.809.809,0,0,1,.092.377.949.949,0,0,1-.092.4,1.2,1.2,0,0,1-.251.349,1.415,1.415,0,0,1-.372.26A1.446,1.446,0,0,1,782.963,183.6Z" transform="translate(-299.008 -154.058)" fill="#cacaca"/><path d="M783.834,740.467,299.318,691.146a.293.293,0,0,1-.154-.063.376.376,0,0,1-.106-.14.574.574,0,0,1-.049-.2.788.788,0,0,1,.019-.231.87.87,0,0,1,.085-.225.757.757,0,0,1,.134-.177.537.537,0,0,1,.162-.112.352.352,0,0,1,.175-.03l484.69,48.538a1.282,1.282,0,0,1,.439.123,1.036,1.036,0,0,1,.326.247.848.848,0,0,1,.182.336.809.809,0,0,1,.007.388.95.95,0,0,1-.178.372,1.2,1.2,0,0,1-.322.286,1.41,1.41,0,0,1-.42.172A1.445,1.445,0,0,1,783.834,740.467Z" transform="translate(-297.168 -352.104)" fill="#cacaca"/><path d="M310.292,227.477a3.3,3.3,0,0,1,1.855.251,4.1,4.1,0,0,1,1.522,1.215,6.178,6.178,0,0,1,1.03,1.993,8.569,8.569,0,0,1,.377,2.575,9.661,9.661,0,0,1-.377,2.68,8.584,8.584,0,0,1-1.03,2.284,6.2,6.2,0,0,1-1.522,1.646,4.061,4.061,0,0,1-1.855.769,3.3,3.3,0,0,1-1.846-.282,4.14,4.14,0,0,1-1.5-1.232,6.225,6.225,0,0,1-1.009-1.982,8.587,8.587,0,0,1-.369-2.544,9.666,9.666,0,0,1,.37-2.649,8.623,8.623,0,0,1,1.008-2.266,6.271,6.271,0,0,1,1.5-1.655,4.11,4.11,0,0,1,1.846-.8Z" transform="translate(-300.269 -162.874)" fill="#6c63ff"/><path d="M331.041,224.355a3.517,3.517,0,0,1,1.941.251,4.252,4.252,0,0,1,1.6,1.235,6.246,6.246,0,0,1,1.078,2.035,8.573,8.573,0,0,1,.394,2.633,9.687,9.687,0,0,1-.4,2.743,8.717,8.717,0,0,1-1.076,2.336,6.431,6.431,0,0,1-1.593,1.688,4.315,4.315,0,0,1-1.941.8,3.517,3.517,0,0,1-1.931-.283,4.294,4.294,0,0,1-1.57-1.256,6.291,6.291,0,0,1-1.057-2.024,8.588,8.588,0,0,1-.386-2.6,9.688,9.688,0,0,1,.386-2.708,8.753,8.753,0,0,1,1.055-2.324,6.5,6.5,0,0,1,1.57-1.7,4.365,4.365,0,0,1,1.931-.828Z" transform="translate(-304.216 -162.273)" fill="#3f3d56"/><path d="M352.759,221.083a3.76,3.76,0,0,1,2.034.248,4.421,4.421,0,0,1,1.669,1.262,6.319,6.319,0,0,1,1.131,2.079,8.577,8.577,0,0,1,.415,2.692,9.712,9.712,0,0,1-.415,2.807,8.861,8.861,0,0,1-1.131,2.4,6.68,6.68,0,0,1-1.669,1.733,4.593,4.593,0,0,1-2.034.82,3.756,3.756,0,0,1-2.023-.283,4.459,4.459,0,0,1-1.645-1.279,6.365,6.365,0,0,1-1.1-2.069,8.593,8.593,0,0,1-.4-2.656,9.721,9.721,0,0,1,.4-2.777,8.893,8.893,0,0,1,1.1-2.379,6.748,6.748,0,0,1,1.646-1.743A4.648,4.648,0,0,1,352.759,221.083Z" transform="translate(-308.347 -161.643)" fill="#3f3d56"/><path d="M858.376,151.459l-29.484,4.263a2.223,2.223,0,0,1-.828-.031,1.8,1.8,0,0,1-.676-.314,1.555,1.555,0,0,1-.455-.541,1.584,1.584,0,0,1-.167-.717,1.908,1.908,0,0,1,.167-.768,2.355,2.355,0,0,1,.455-.674,2.643,2.643,0,0,1,.676-.509,2.586,2.586,0,0,1,.828-.273l29.483-4.361a2.4,2.4,0,0,1,.872.025,1.915,1.915,0,0,1,.713.314,1.57,1.57,0,0,1,.657,1.3,1.922,1.922,0,0,1-.176.791,2.429,2.429,0,0,1-.48.7,2.806,2.806,0,0,1-1.586.805Z" transform="translate(-400.48 -147.505)" fill="#3f3d56"/><path d="M858.376,160.572l-29.483,4.082a2.224,2.224,0,0,1-.828-.036,1.818,1.818,0,0,1-.676-.314,1.571,1.571,0,0,1-.455-.544,1.593,1.593,0,0,1-.167-.726,1.9,1.9,0,0,1,.167-.767,2.334,2.334,0,0,1,.455-.671,2.618,2.618,0,0,1,.676-.5,2.576,2.576,0,0,1,.828-.268l29.483-4.18a2.4,2.4,0,0,1,.872.031,1.929,1.929,0,0,1,.713.32,1.612,1.612,0,0,1,.482.557,1.6,1.6,0,0,1,.175.74,1.915,1.915,0,0,1-.177.79,2.4,2.4,0,0,1-.482.691,2.783,2.783,0,0,1-1.586.8Z" transform="translate(-400.48 -149.258)" fill="#3f3d56"/><path d="M858.376,169.685l-29.484,3.894a2.226,2.226,0,0,1-.828-.041,1.83,1.83,0,0,1-.676-.32,1.572,1.572,0,0,1-.622-1.266,1.894,1.894,0,0,1,.166-.766,2.315,2.315,0,0,1,.455-.669,2.6,2.6,0,0,1,.676-.5,2.558,2.558,0,0,1,.828-.262l29.483-3.992a2.4,2.4,0,0,1,.872.036,1.942,1.942,0,0,1,.714.325,1.626,1.626,0,0,1,.482.56,1.6,1.6,0,0,1,.175.741,1.906,1.906,0,0,1-.177.789,2.385,2.385,0,0,1-.482.691,2.764,2.764,0,0,1-1.586.785Z" transform="translate(-400.48 -151.01)" fill="#3f3d56"/><path d="M692.359,251.9l142.417-12.062v84.893l-142.417,1.858Z" transform="translate(-374.637 -165.257)" fill="#6c63ff"/><path d="M808.748,390.339l-84.579-1.681a3.8,3.8,0,0,1-2.6-1.1,3.666,3.666,0,0,1-.787-1.149,3.508,3.508,0,0,1-.288-1.394,3.439,3.439,0,0,1,.288-1.382,3.5,3.5,0,0,1,.787-1.125,3.623,3.623,0,0,1,1.169-.75,3.744,3.744,0,0,1,1.435-.262l84.579,1.114a4.75,4.75,0,0,1,1.676.326,4.46,4.46,0,0,1,1.372.849,3.97,3.97,0,0,1,.927,1.243,3.553,3.553,0,0,1,.341,1.514,3.481,3.481,0,0,1-.341,1.5,3.787,3.787,0,0,1-.927,1.215,4.269,4.269,0,0,1-1.372.8,4.669,4.669,0,0,1-1.676.271Z" transform="translate(-380.046 -192.495)" fill="#e4e4e4"/><path d="M797.24,374.081l-57.259-.481a3.921,3.921,0,0,1-1.47-.3,3.825,3.825,0,0,1-1.2-.784,3.652,3.652,0,0,1-.806-1.154,3.5,3.5,0,0,1,0-2.811,3.6,3.6,0,0,1,.806-1.146,3.77,3.77,0,0,1,1.2-.772,3.9,3.9,0,0,1,1.47-.282l57.26.1a4.552,4.552,0,0,1,1.633.3,4.273,4.273,0,0,1,1.337.822,3.852,3.852,0,0,1,.9,1.22,3.511,3.511,0,0,1,0,2.979,3.8,3.8,0,0,1-.9,1.21,4.218,4.218,0,0,1-1.338.809,4.529,4.529,0,0,1-1.633.286Z" transform="translate(-383.069 -189.583)" fill="#e4e4e4"/><path d="M692.359,422.913l142.417,6.493V514.3L692.359,497.6Z" transform="translate(-374.637 -200.458)" fill="#6c63ff"/><path d="M808.748,573.755l-84.579-12.7a4.216,4.216,0,0,1-1.435-.5,4.557,4.557,0,0,1-1.169-.942,4.376,4.376,0,0,1-.787-1.25,3.782,3.782,0,0,1-.288-1.431,3.181,3.181,0,0,1,.288-1.347,2.913,2.913,0,0,1,.787-1.021,3.07,3.07,0,0,1,1.169-.6,3.58,3.58,0,0,1,1.435-.075l84.579,12.134a5.219,5.219,0,0,1,1.676.545,5.341,5.341,0,0,1,1.372,1.027,4.762,4.762,0,0,1,.927,1.366,3.855,3.855,0,0,1,.34,1.559,3.2,3.2,0,0,1-.34,1.459,3.141,3.141,0,0,1-.927,1.094,3.648,3.648,0,0,1-1.372.624,4.5,4.5,0,0,1-1.676.052Z" transform="translate(-380.046 -225.634)" fill="#e4e4e4"/><path d="M797.24,556l-57.259-7.942a4.317,4.317,0,0,1-1.47-.488,4.592,4.592,0,0,1-1.2-.942,4.358,4.358,0,0,1-.806-1.256,3.769,3.769,0,0,1-.3-1.446,3.2,3.2,0,0,1,.3-1.365,3,3,0,0,1,.806-1.041,3.191,3.191,0,0,1,1.2-.616,3.713,3.713,0,0,1,1.47-.09l57.259,7.558a4.985,4.985,0,0,1,1.633.516,5.117,5.117,0,0,1,1.338,1,4.623,4.623,0,0,1,.9,1.336,3.817,3.817,0,0,1,.332,1.534,3.22,3.22,0,0,1-.332,1.445,3.152,3.152,0,0,1-.9,1.092,3.589,3.589,0,0,1-1.338.634,4.338,4.338,0,0,1-1.633.074Z" transform="translate(-383.069 -223.12)" fill="#e4e4e4"/><path d="M535.608,468.22,311.692,439.552a3.666,3.666,0,0,1-1.68-.695,5.533,5.533,0,0,1-1.367-1.474,7.656,7.656,0,0,1-.919-2.042,8.7,8.7,0,0,1-.337-2.4V291.533a8.541,8.541,0,0,1,.337-2.387,7.267,7.267,0,0,1,.919-2,5.168,5.168,0,0,1,1.366-1.412,3.5,3.5,0,0,1,1.68-.617l223.917-18.334a6.587,6.587,0,0,1,5.232,1.915,7.269,7.269,0,0,1,1.6,2.417,8.148,8.148,0,0,1,.59,3.072V461.155a7.94,7.94,0,0,1-.59,3.045,6.824,6.824,0,0,1-1.6,2.344,6.265,6.265,0,0,1-2.359,1.413A6.527,6.527,0,0,1,535.608,468.22Z" transform="translate(-300.619 -170.435)" fill="#fff"/><path d="M450.072,385.841a14.835,14.835,0,0,0-2.021-2.147,13.255,13.255,0,0,0-2.3-1.607,11.962,11.962,0,0,0-2.5-1.029,11.125,11.125,0,0,0-2.623-.416,10.85,10.85,0,0,0-2.616.22,11.173,11.173,0,0,0-2.481.832,12.02,12.02,0,0,0-2.277,1.4,13.31,13.31,0,0,0-2,1.94l-60.25,72a6.841,6.841,0,0,1-2.6,1.961,5.841,5.841,0,0,1-2.935.412,6.794,6.794,0,0,1-2.915-1.08,9.365,9.365,0,0,1-2.549-2.518l-7.981-11.474a12.48,12.48,0,0,0-3.464-3.43,8.754,8.754,0,0,0-3.9-1.4,7.537,7.537,0,0,0-3.864.653,9.155,9.155,0,0,0-3.364,2.718L322.993,461.2l201.85,25.484V483.1Z" transform="translate(-303.619 -192.329)" fill="#6c63ff"/><path d="M535.262,470.276l-223.916-29.3a4.922,4.922,0,0,1-2.25-.937,7.427,7.427,0,0,1-1.828-1.979,10.268,10.268,0,0,1-1.227-2.734,11.667,11.667,0,0,1-.451-3.21V290.992a11.448,11.448,0,0,1,.451-3.189,9.749,9.749,0,0,1,1.227-2.677,6.937,6.937,0,0,1,1.827-1.895,4.7,4.7,0,0,1,2.25-.833l223.916-18.967a8.83,8.83,0,0,1,7.027,2.555,9.74,9.74,0,0,1,2.151,3.243,10.919,10.919,0,0,1,.794,4.128V460.813a10.643,10.643,0,0,1-.794,4.091,9.141,9.141,0,0,1-2.151,3.144,8.4,8.4,0,0,1-3.172,1.889,8.754,8.754,0,0,1-3.855.34ZM311.346,286.548a2.308,2.308,0,0,0-1.109.4,3.4,3.4,0,0,0-.9.931,4.789,4.789,0,0,0-.608,1.319,5.632,5.632,0,0,0-.224,1.576V432.464a5.741,5.741,0,0,0,.223,1.585,5.045,5.045,0,0,0,.608,1.349,3.643,3.643,0,0,0,.9.977,2.415,2.415,0,0,0,1.109.455l223.916,28.034a4.305,4.305,0,0,0,1.894-.178,4.135,4.135,0,0,0,1.552-.935,4.5,4.5,0,0,0,1.05-1.545,5.238,5.238,0,0,0,.387-2V273.731a5.373,5.373,0,0,0-.387-2.022,4.8,4.8,0,0,0-1.05-1.593,4.345,4.345,0,0,0-3.445-1.271Z" transform="translate(-300.273 -169.787)" fill="#cbcbcb"/><circle cx="12.924" cy="12.924" r="12.924" transform="translate(42.079 150.283)" fill="#2f2e41"/></g></g></svg>