<svg width="112" height="112" viewBox="0 0 112 112" fill="none" xmlns="http://www.w3.org/2000/svg">
<path d="M101.51 28.6107C101.449 28.1914 101.404 28.0516 100.879 27.8111C98.6812 26.8998 90.4508 26.7712 88.0745 26.7432C88.0829 26.2865 87.9772 25.8348 87.767 25.4292C86.8779 24.529 81.1916 24.6353 79.9838 24.3893C79.872 24.3893 79.8832 24.3893 79.8552 24.2886C79.5701 23.5897 79.4974 21.2469 79.0333 20.4306C78.1667 18.8986 74.879 18.0207 72.8493 19.4689C71.8023 19.1533 70.6833 19.1689 69.6455 19.5136C69.086 19.7413 68.5829 20.0885 68.1715 20.5308C67.7601 20.9731 67.4502 21.4999 67.2636 22.0745C66.9476 23.1312 66.7764 24.2259 66.7548 25.3286C65.7204 25.6697 60.3304 26.0722 59.7097 26.8774C59.5565 27.1123 59.4555 27.3773 59.4134 27.6546C55.6113 27.9397 56.0194 27.9901 55.9747 27.8559C54.5545 23.4331 49.4385 19.0104 49.4385 19.0104C49.321 18.9042 49.2036 19.0104 48.9464 19.1222C48.654 18.2912 48.2794 17.4914 47.8282 16.7347C47.8389 16.5482 47.7757 16.3649 47.6522 16.2246C47.5287 16.0844 47.3548 15.9984 47.1684 15.9855C47.6716 15.3872 46.8329 14.4311 45.6811 15.2195C45.4854 14.9343 45.2785 14.6604 45.066 14.3584C45.1926 14.2777 45.3073 14.1798 45.4071 14.0677C45.5245 13.8552 44.848 14.0677 48.8681 13.3129C49.6118 13.1619 52.8939 12.4965 53.3412 12.3511C53.3919 12.345 53.439 12.3217 53.4746 12.285C53.5102 12.2484 53.5322 12.2007 53.5369 12.1499C54.3197 11.7193 53.4474 9.39334 53.112 8.56582C54.5042 7.21832 54.2302 5.77016 53.0505 5.35081C52.5067 5.18439 51.9299 5.15747 51.3731 5.27254C50.8442 4.35897 50.1253 3.56958 49.2651 2.95773C48.6333 2.61107 48.1469 2.82354 48.0015 3.15343C47.8561 3.48331 42.4773 9.86301 42.4102 9.90215C41.3925 10.1929 39.8885 10.8303 39.3909 11.7641C38.239 13.9503 40.4756 16.6341 42.6562 15.7842L43.0532 15.6556C43.288 15.9967 43.5788 16.3825 43.836 16.7236C43.7871 16.8131 43.7459 16.9066 43.7129 17.0031C43.6514 17.2044 43.2433 17.7412 43.5117 18.2779C43.78 18.8147 45.6364 20.1231 46.1955 20.4753L46.0781 20.5368C46.0393 20.553 46.0082 20.5836 45.9915 20.6222C45.9748 20.6608 45.9738 20.7044 45.9886 20.7437C46.3129 21.6942 48.063 26.2456 47.2131 26.0667C45.9718 25.7983 42.9022 24.5961 39.1672 23.3772C37.1152 22.7063 35.7397 22.0577 33.9114 21.6327C33.7772 20.7549 33.6262 20.4753 33.492 19.7652C34.0956 19.508 34.6065 19.0731 34.9569 18.5184C35.1582 18.1829 34.9234 18.3171 35.3483 18.401C35.4863 18.442 35.6347 18.4284 35.7628 18.3627C35.8909 18.2971 35.9888 18.1846 36.0361 18.0487C36.5393 18.222 37.0201 17.9369 36.9083 17.3498C37.2662 17.3498 37.9259 17.3498 38.0266 16.7291C38.1775 15.9799 37.2494 15.7171 37.0145 15.4376C36.5916 14.9121 36.2865 14.3019 36.1199 13.6483C35.5608 11.8591 35.1247 8.8398 34.1406 7.69358C33.8326 7.35286 33.4538 7.08355 33.0308 6.90448C32.6078 6.72542 32.1508 6.64092 31.6918 6.65689C31.2327 6.67287 30.7827 6.78894 30.3732 6.99698C29.9636 7.20502 29.6045 7.50001 29.3209 7.86132C28.9651 7.65977 28.5906 7.49311 28.2026 7.36369C27.7272 7.28613 27.2409 7.30768 26.7743 7.42699C26.3076 7.5463 25.8707 7.7608 25.4908 8.05701C23.6569 9.61699 24.6018 12.3008 23.3661 15.1804C22.9803 16.075 21.0569 18.004 22.4659 18.7364C22.6113 18.7813 22.7662 18.7857 22.914 18.7493C23.0617 18.7128 23.1968 18.6369 23.3046 18.5296C23.3184 18.6742 23.3602 18.8147 23.4276 18.9433C23.5953 19.144 23.8124 19.2976 24.0576 19.3888C24.3027 19.48 24.5674 19.5056 24.8255 19.4633C24.9855 19.4104 25.1297 19.3181 25.2448 19.1949C25.2823 19.311 25.3498 19.4152 25.4405 19.4969C25.899 19.8603 26.4581 19.8267 26.939 19.0999C27.0138 19.2054 27.1172 19.2874 27.2371 19.3359C27.3571 19.3845 27.4884 19.3976 27.6155 19.3738V21.2246C27.308 21.2637 27.0005 21.3029 26.693 21.3588C26.6671 21.3536 26.6405 21.3536 26.6147 21.3588C23.2408 21.8541 20.0787 23.3032 17.5008 25.5355C14.9194 27.7311 12.8034 30.4212 11.2777 33.4472C9.93019 36.4106 10.0756 37.5065 10.5396 39.5976C10.8253 40.8002 11.3733 41.9248 12.1444 42.8909C12.9942 44.0427 14.3082 45.4294 16.2092 47.4814C16.6621 47.9679 17.2325 48.5997 17.7133 49.0805C17.4561 50.2547 15.6389 57.3501 15.7452 58.7871C15.7452 58.9324 15.8794 59.1058 16.1701 59.2288C17.1225 59.5132 18.1068 59.6766 19.1 59.7152C18.7701 71.5856 19.6144 87.1574 20.6599 98.7147C20.6172 98.7293 20.5788 98.7543 20.5481 98.7874C20.3691 99.2804 20.3691 99.8207 20.5481 100.314C20.6208 100.465 20.7606 100.454 21.1072 100.482C21.1072 101.197 21.1687 102.025 21.2135 102.746C21.0881 102.843 20.9754 102.956 20.878 103.081C20.8389 103.171 20.8333 103.143 21.0849 104.608C20.9122 105.082 20.7794 105.571 20.6879 106.067C20.6358 106.438 20.604 106.811 20.5928 107.186C20.5916 107.386 20.6543 107.582 20.7718 107.745C21.4797 108.298 22.2728 108.732 23.1201 109.031C24.0664 108.88 24.9601 108.496 25.7201 107.912C25.8145 107.828 25.8867 107.721 25.9306 107.603C25.9744 107.484 25.9885 107.356 25.9717 107.23C25.9377 106.315 25.7817 105.409 25.5076 104.535C25.6194 104.057 25.6793 103.567 25.6865 103.076C25.653 102.97 25.5915 102.919 25.2895 102.724C25.3622 102.03 25.4293 101.248 25.4797 100.56H26.1786C26.6203 100.532 26.4861 99.7603 26.5085 99.1452C26.5085 98.9271 26.296 98.8489 26.0947 98.8041L31.3953 64.6412C31.7811 66.7659 32.6925 72.0776 32.6869 74.2471C32.6869 74.7726 31.3394 92.1057 31.0095 96.6459C30.9564 96.6581 30.9078 96.6852 30.8697 96.7242C30.6713 97.2022 30.6302 97.7309 30.7523 98.2338C30.8138 98.4016 30.9703 98.4016 31.2052 98.4407C31.1213 99.2235 31.043 100.062 30.9815 100.873C30.7579 100.873 30.6908 100.929 30.6181 101.136C30.4 101.762 30.1764 103.982 30.5678 104.597C30.8305 105.005 39.6928 106.699 42.0411 105.665C42.5108 105.452 42.4884 104.971 42.4102 104.463C42.276 103.546 38.4962 102.288 37.378 101.74C37.2717 101.684 37.2941 101.7 37.2494 101.617C36.6903 100.599 36.5337 100.168 36.3715 100.09C36.2099 100.043 36.0398 100.034 35.8739 100.062C35.8348 99.6764 35.7956 99.3018 35.7509 98.8768C35.8441 98.8931 35.94 98.8794 36.0249 98.8377C36.2597 98.6699 36.2374 97.9654 36.2933 97.4958C36.2999 97.4319 36.2819 97.3679 36.2429 97.3168C35.941 96.8751 35.6838 98.7314 38.6975 88.203C38.5969 89.3772 37.7694 98.7706 38.0601 99.2347C38.144 99.3521 38.3061 99.3577 38.5074 99.3744C42.2145 99.7491 89.299 101.488 93.2521 101.533C93.9286 101.533 96.0477 101.577 96.249 101.443C98.1277 100.303 102.321 34.4872 101.51 28.6107ZM59.8271 26.9836C60.3863 26.2288 66.341 25.8933 66.9169 25.5634C66.9486 25.5492 66.9758 25.5266 66.9955 25.498C67.0152 25.4694 67.0267 25.4359 67.0288 25.4013C67.056 24.3143 67.2328 23.2362 67.5543 22.1975C67.733 21.6684 68.0261 21.1853 68.4126 20.7823C68.7992 20.3793 69.2697 20.0664 69.7909 19.8659C71.3061 19.3067 73.8837 19.7988 74.6274 21.1407C75.0914 21.9626 75.1026 24.8086 75.5779 25.2056C76.0531 25.6026 82.6509 25.4684 83.4057 26.24C83.4515 26.3317 83.4835 26.4297 83.5008 26.5307C83.6729 27.7502 83.6597 28.9887 83.4617 30.2042C81.9352 30.8137 63.2099 31.6524 60.28 31.3225C59.8663 31.2778 59.8327 31.3225 59.7209 30.9087C59.4469 30.0421 59.3351 27.6434 59.8271 26.9836ZM45.4127 16.6788C45.4519 16.3545 45.3065 16.5055 45.6196 16.5726C45.5752 16.651 45.5503 16.7391 45.5473 16.8291C45.5442 16.9192 45.563 17.0087 45.602 17.09C45.641 17.1713 45.699 17.242 45.7712 17.2959C45.8434 17.3499 45.9276 17.3857 46.0166 17.4001C45.9639 17.4741 45.932 17.5608 45.9241 17.6512C45.9162 17.7417 45.9327 17.8326 45.9718 17.9145C46.106 18.1941 46.2961 18.2332 46.5813 18.2668C46.4703 18.3928 46.3141 18.4699 46.1466 18.4814C45.9791 18.4929 45.8138 18.4379 45.6867 18.3283C45.6364 18.2779 45.3903 17.976 45.066 17.5734C45.2307 17.2967 45.3479 16.9943 45.4127 16.6788ZM47.4088 16.4664C47.4479 16.4883 47.4821 16.5179 47.5093 16.5535C47.5365 16.589 47.5563 16.6297 47.5672 16.6732C47.5782 16.7166 47.5803 16.7618 47.5732 16.806C47.5662 16.8503 47.5502 16.8926 47.5262 16.9304C47.2847 16.905 47.0406 16.922 46.8049 16.9808C46.5533 17.0367 46.1116 17.0758 46.0054 16.9081C45.8488 16.6397 46.9951 16.1812 47.4088 16.4664ZM46.229 15.3872C46.8385 15.1356 47.1852 15.5606 47.0789 15.7898C46.6878 16.0429 46.2308 16.1751 45.765 16.17C45.7396 16.1696 45.7145 16.1639 45.6914 16.1533C45.6684 16.1427 45.6477 16.1274 45.6308 16.1085C45.5078 15.9911 45.5916 15.8681 45.6979 15.7563C45.8511 15.6021 46.0311 15.4771 46.229 15.3872ZM45.2506 13.6707C44.5628 12.6699 42.891 10.4445 42.6226 10.014L47.9512 3.86352C48.1413 5.54092 49.9752 8.61615 50.8866 10.014C50.9165 10.0518 50.9576 10.0792 51.004 10.0923C51.512 10.8527 52.1387 11.5266 52.8603 12.0884C52.4242 12.1443 46.8273 13.3576 45.2506 13.6707ZM52.9107 5.74221C53.0519 5.79133 53.1815 5.86914 53.2912 5.97073C53.401 6.07232 53.4885 6.1955 53.5484 6.33255C53.6082 6.46959 53.6391 6.61753 53.639 6.76707C53.639 6.91662 53.608 7.06454 53.5481 7.20154C53.2461 8.03465 52.4298 8.66088 51.6918 9.18646C51.4905 9.33743 51.2948 9.47721 51.1326 9.58344C50.3786 8.51063 49.695 7.39001 49.0862 6.22865C50.2268 5.88758 51.8707 5.31727 52.9107 5.74221ZM42.5332 15.404C40.716 16.1141 38.8429 13.8049 39.7375 11.943C40.1345 11.1043 41.5771 10.411 42.4549 10.0978C42.6841 10.5172 44.6187 13.4191 44.9486 13.9391C44.1963 14.5097 43.3869 15.0006 42.5332 15.404ZM43.3663 15.4655C43.8527 15.1915 44.4286 14.8225 44.8815 14.5038C45.066 14.8001 45.2562 15.1244 45.4407 15.4208C45.3427 15.4967 45.2649 15.5956 45.2142 15.7087C45.1635 15.8218 45.1414 15.9457 45.1499 16.0694C44.9972 15.9891 44.8234 15.9578 44.6523 15.9799C44.4265 16.0255 44.2265 16.1555 44.0932 16.3433L43.3663 15.4655ZM45.2897 19.4242C44.0652 18.3562 43.9534 18.4401 43.836 18.1158C43.7185 17.7915 44.054 17.3162 44.1267 17.115C44.2497 16.7571 44.6411 16.2147 44.9654 16.444C45.1835 16.595 44.8759 17.4672 44.7977 17.6461C44.7673 17.6932 44.7429 17.744 44.725 17.7971C44.9319 18.0863 45.154 18.3644 45.3903 18.6302C45.5213 18.7454 45.6774 18.8284 45.8462 18.8725C46.015 18.9166 46.1917 18.9207 46.3624 18.8843C46.533 18.8479 46.6927 18.772 46.8288 18.6629C46.9648 18.5537 47.0735 18.4142 47.146 18.2556L47.4144 18.1997C47.4366 18.1944 47.4561 18.1813 47.4694 18.1629C47.4828 18.1444 47.4891 18.1217 47.4871 18.099C47.4871 17.9536 47.1628 18.099 46.7267 17.9425C46.5366 17.8866 46.4136 17.8698 46.3688 17.7524C46.2682 17.5119 47.1516 17.3162 47.4256 17.3218C47.4989 17.3131 47.5732 17.319 47.6442 17.3392C47.7152 17.3593 47.7815 17.3933 47.8393 17.4392C47.8953 17.4896 48.6948 18.9713 48.801 19.2173L46.408 20.3356C46.0893 20.1287 45.6699 19.7708 45.2897 19.4242ZM47.1516 26.335C47.2081 26.353 47.2677 26.3594 47.3267 26.3538C47.3858 26.3483 47.4431 26.3309 47.4953 26.3027C47.5474 26.2746 47.5934 26.2362 47.6304 26.1898C47.6674 26.1435 47.6948 26.0902 47.7107 26.0331C47.9903 25.1944 46.9 22.3317 46.3688 20.7605L49.2931 19.385C49.9696 19.9945 54.3253 23.9923 55.5721 27.9845C56.2878 30.221 56.0139 32.4575 53.4698 34.0734C51.5148 35.2499 49.2423 35.7892 46.9671 35.6166C44.6895 35.4725 42.4565 34.9195 40.3749 33.984C40.4588 32.7818 40.4308 30.1036 40.6377 28.6554C40.6397 28.6324 40.6331 28.6094 40.6193 28.5908C40.6055 28.5722 40.5854 28.5593 40.5627 28.5545C40.5401 28.5497 40.5164 28.5533 40.4963 28.5647C40.4761 28.5761 40.4608 28.5944 40.4532 28.6163C40.2926 29.1031 40.1729 29.6025 40.0954 30.1092C39.9447 31.4292 39.9259 32.7609 40.0395 34.0846C39.9947 34.1741 39.9276 33.7044 40.7607 41.6049C40.7607 41.7 43.8807 55.3316 43.7968 57.1712C42.6786 57.775 36.2541 58.446 34.8507 58.4739C34.409 57.3948 31.9824 50.087 31.6021 48.924C33.8387 37.8364 31.9991 45.1778 35.2365 38.4402C36.3702 36.0707 37.3817 33.6446 38.267 31.1715C38.4817 30.6017 38.6536 30.0168 38.7814 29.4214C38.8261 29.3208 38.8876 29.2146 38.7814 29.0972L37.35 27.1681C38.8709 23.3269 38.8205 23.5338 38.815 23.4387C42.4214 24.6744 45.888 26.0499 47.1516 26.335ZM40.5091 34.5599C41.7213 35.074 42.9819 35.4655 44.2721 35.7285C43.7968 38.9546 43.2489 43.3159 42.673 48.253C40.7719 39.2174 41.4596 44.0316 40.5091 34.5599ZM23.2934 93.0507C23.1257 97.3616 23.2934 97.1715 23.1089 97.1771C23.0847 97.1771 23.0613 97.1679 23.0436 97.1512C23.0259 97.1346 23.0153 97.1118 23.0139 97.0876C22.7958 92.2008 23.3829 82.9304 24.5515 59.8941H24.764C24.3893 68.5327 23.3326 91.9939 23.2934 93.0507ZM27.034 27.5763C25.6515 26.0133 24.3793 24.3561 23.2264 22.6168C24.2914 22.2166 25.395 21.928 26.5196 21.7557C26.8887 22.6056 28.0069 25.7312 28.32 26.6146L27.0452 27.5931L27.034 27.5763ZM27.6994 21.6663C28.7729 22.7845 31.0095 24.8366 32.5694 24.9819C32.4073 25.2447 31.3841 26.9054 31.1828 27.1458C30.5845 26.9501 28.102 23.9755 27.6659 23.4611C27.4925 22.997 27.2018 22.2031 27.0117 21.7502L27.6994 21.6663ZM25.6865 30.344V30.2881C25.6865 30.2657 26.8383 28.2529 26.9502 28.0516C27.0005 27.9565 26.8272 28.1131 28.4039 26.8215C31.0542 34.3362 30.9647 35.0855 32.3178 40.1176C24.8702 29.1642 25.7201 30.2881 25.6865 30.344ZM31.7084 26.7991C31.8178 27.1983 31.9657 27.5859 32.1501 27.9565C32.2619 28.0795 31.9376 29.2705 31.4065 34.6214C30.4475 31.1559 29.3148 27.7409 28.0125 24.3893C28.4598 24.8757 30.4503 27.0619 31.0598 27.2967C31.0977 27.3211 31.1423 27.3332 31.1874 27.3312C31.2324 27.3291 31.2758 27.3132 31.3114 27.2856C31.3729 27.2185 31.5183 27.0228 31.6972 26.7712L31.7084 26.7991ZM33.123 41.2583C33.8666 37.9035 35.4658 29.8743 35.6391 26.4692L36.981 27.3527C38.5801 29.5892 38.4347 29.332 38.4236 29.4326C38.2167 30.6236 34.5432 39.3516 33.1118 41.2303L33.123 41.2583ZM36.9027 26.9892L35.667 26.2288C35.8106 25.0597 35.8927 23.8839 35.9131 22.7063C36.6903 22.9691 37.4954 23.2654 38.2502 23.5953C38.116 23.914 37.1543 26.3462 36.9027 26.9892ZM34.7109 30.193C34.5436 29.3964 34.3232 28.6119 34.0511 27.8447C34.0791 27.7217 34.1965 27.1793 34.2692 26.8383C34.3983 26.9829 34.5345 27.121 34.6774 27.252C34.8172 27.375 34.929 27.4477 35.08 27.375C34.9625 28.3144 34.8451 29.209 34.7109 30.193ZM35.4378 22.5441C35.432 23.8528 35.3461 25.1599 35.1806 26.458C35.0799 26.6593 34.9961 26.8215 34.9346 26.9277C34.2802 26.3023 33.6605 25.6415 33.0783 24.9484C34.0679 24.6744 34.0791 23.1368 33.9785 22.108C34.4873 22.231 34.9737 22.3652 35.4378 22.5218V22.5441ZM28.6052 18.6302C28.6387 18.5351 28.6052 18.5631 28.6891 18.5799C29.0291 18.6158 29.3714 18.5382 29.6627 18.3592C29.954 18.1801 30.1778 17.9098 30.2994 17.5902C30.4254 17.0399 30.3885 16.4648 30.1931 15.9352C30.1094 15.6849 30.044 15.4289 29.9974 15.1692C29.7179 14.0509 29.0357 12.9606 29.3488 11.8647C29.4244 11.5666 29.6134 11.3097 29.8755 11.1489C30.1377 10.988 30.4523 10.9359 30.7523 11.0036C30.9047 11.0586 31.0525 11.126 31.194 11.2049C31.6692 11.4509 32.0103 11.6299 32.234 11.4062C32.234 11.4062 32.9105 10.7408 33.5535 10.9142C33.8107 11.0148 34.4146 12.2952 34.5488 12.9941C34.448 12.8596 34.3003 12.7678 34.135 12.7369C33.6765 12.681 33.3578 13.0557 33.4249 13.1675C33.7991 13.2513 34.19 13.2161 34.5432 13.0668C34.7349 14.1199 34.8229 15.1892 34.806 16.2595C34.5466 16.0911 34.2614 15.9664 33.9617 15.8905C33.7349 15.8828 33.5093 15.9268 33.3019 16.0191C33.0791 15.963 32.8492 15.9403 32.6198 15.952C31.9768 16.075 31.4456 16.7739 31.1213 17.0702C30.9759 17.2044 30.8697 17.5734 31.1213 17.73C31.3729 17.8866 31.7363 17.6014 31.8482 17.4728C32.3093 17.0098 32.8108 16.5887 33.3466 16.2147C33.8091 16.5203 34.2869 16.8021 34.778 17.059C34.7143 17.3319 34.6936 17.6129 34.7165 17.8921C34.5857 18.2209 34.3864 18.5181 34.1319 18.7639C33.8774 19.0098 33.5735 19.1986 33.2404 19.3179C33.1965 19.3318 33.1559 19.3543 33.1209 19.3843C33.086 19.4143 33.0575 19.451 33.0371 19.4922C33.0167 19.5335 33.0049 19.5785 33.0024 19.6244C32.9998 19.6704 33.0066 19.7164 33.0223 19.7596C33.1342 20.4586 33.6709 21.9179 33.5088 23.3884C33.4585 23.8469 33.3131 24.4228 32.8546 24.4731C31.5127 24.6241 29.019 22.3149 28.074 21.342V19.2229C28.3252 19.0877 28.5152 18.8617 28.6052 18.5911V18.6302ZM27.9566 13.8664C28.0505 14.459 28.1121 15.0563 28.1411 15.6556C27.8224 15.7674 27.3975 15.3481 27.3192 15.0518C27.1403 14.4367 27.2968 14.0453 27.9566 13.8664ZM16.2148 58.7088C16.1477 57.3725 17.8028 50.8082 18.1215 49.444C18.277 49.611 18.4681 49.741 18.6806 49.8242C18.729 49.8296 18.7779 49.8202 18.8208 49.7972C18.8637 49.7743 18.8987 49.7388 18.921 49.6956C18.9602 49.6397 19.0944 49.4272 19.2901 49.1364C19.4524 49.4793 19.6803 49.7871 19.961 50.0422C19.1279 50.7244 18.949 50.6741 19.0217 50.8082C19.0324 50.8286 19.0506 50.8441 19.0725 50.8514C19.0944 50.8587 19.1183 50.8573 19.1391 50.8474C21.521 49.7962 22.7399 47.8896 22.8797 45.2225C22.8814 45.2005 22.875 45.1786 22.8616 45.161C22.8482 45.1435 22.8287 45.1315 22.807 45.1275C22.6169 45.1275 22.7511 45.5859 22.1305 47.1403C21.8508 46.862 21.5072 46.6566 21.1296 46.5421C21.2042 46.4444 21.2865 46.3528 21.3756 46.2681C21.5042 46.2345 21.5769 46.1059 21.5042 45.9214C21.3197 45.435 20.1735 43.4501 19.8827 42.9524C19.8859 42.9208 19.8859 42.889 19.8827 42.8574C19.9163 42.0802 20.1008 40.7047 20.2741 39.223C20.6085 36.3129 20.7635 33.385 20.7382 30.4558C20.6973 29.6051 20.5392 28.7641 20.2685 27.9565C20.2634 27.9328 20.2489 27.9121 20.2285 27.899C20.2081 27.8859 20.1832 27.8814 20.1595 27.8866C20.1358 27.8918 20.1151 27.9062 20.102 27.9267C20.0889 27.9471 20.0844 27.9719 20.0896 27.9957C20.263 29.2257 20.3524 34.1014 20.3524 34.2132C19.8324 35.0016 17.3666 38.3452 17.3778 38.8652C17.4364 39.1781 17.5341 39.4824 17.6686 39.771C17.6686 39.9164 17.3275 39.0106 19.592 43.2152C19.8883 43.7744 20.7997 45.4518 21.0401 45.9773C20.1698 47.0459 19.3651 48.1662 18.6303 49.3321C17.3722 48.3257 13.5981 44.0763 12.5246 42.6226C11.7909 41.7085 11.2696 40.6428 10.9981 39.5026C10.7014 38.5407 10.6137 37.5265 10.7409 36.528C11.3001 32.9216 14.9456 28.292 17.786 25.9045C19.3515 24.5613 21.1271 23.4846 23.0418 22.7175C23.3605 23.2766 24.0259 24.2383 24.7192 25.2335C26.7601 28.0795 26.7712 27.649 26.6482 27.8615C26.3463 28.4206 25.4293 29.8855 25.284 30.2154C25.2057 30.3999 24.5571 29.5724 32.4408 41.3254C32.1892 42.6897 29.4271 57.9931 28.8512 59.2735C27.8783 59.6593 17.1821 59.5307 16.2148 58.7088ZM20.0784 49.9416C19.8509 49.617 19.6807 49.2558 19.5752 48.8736C19.8753 48.3009 20.2292 47.758 20.632 47.2522C20.8724 46.9335 20.8612 46.8999 21.0234 46.9111C21.3871 46.9624 21.7338 47.0984 22.0354 47.3081C21.6104 48.3416 20.9316 49.2513 20.0617 49.9528L20.0784 49.9416ZM19.4634 42.2256C19.1223 41.6664 17.8699 39.3013 17.8363 38.8708C18.0712 38.2445 19.318 36.3547 20.4139 34.5431C20.2853 36.4777 19.6815 39.7766 19.4466 42.2368L19.4634 42.2256ZM25.4797 107.23C25.4795 107.313 25.4683 107.396 25.4461 107.476C25.4362 107.497 25.4207 107.514 25.4014 107.527C24.8264 107.967 24.1767 108.3 23.4836 108.511C23.1033 108.628 23.0978 108.639 22.2646 108.253C21.8112 108.055 21.3721 107.825 20.9507 107.566C20.8165 107.443 20.7997 107.04 20.7997 106.861C21.1859 107.213 21.6118 107.519 22.0689 107.773C22.8629 108.203 23.4053 108.281 24.6186 107.717C24.92 107.582 25.2083 107.419 25.4797 107.23ZM24.9876 100.605C24.9373 101.225 24.8814 101.863 24.8255 102.433C24.3541 102.143 23.8627 101.887 23.355 101.667C22.8741 101.544 22.013 102.137 21.6105 102.433C21.5657 101.997 21.521 101.449 21.4371 100.498C22.0689 100.532 22.8182 100.549 23.45 100.554C25.1609 100.571 24.9988 100.521 24.9876 100.605ZM25.9996 100.045C25.9437 100.045 21.0178 100.129 20.8165 100.113C20.6558 99.7194 20.6149 99.2875 20.6991 98.8712C20.7759 98.8504 20.8545 98.8373 20.9339 98.8321C22.6362 98.8422 24.336 98.9655 26.022 99.2011C26.0361 99.4957 26.0286 99.791 25.9996 100.085V100.045ZM35.2253 98.8265C35.2645 99.2514 35.298 99.6932 35.3372 100.124C35.1463 100.156 34.9591 100.206 34.778 100.275C34.3475 100.504 34.7165 101.298 34.5767 101.477C34.0511 101.415 32.2675 100.918 31.3226 100.856C31.3561 100.101 31.4009 99.1787 31.44 98.4687C32.5471 98.6252 34.163 98.7538 35.2253 98.8265ZM41.9349 104.669C41.9349 104.893 41.9796 105.134 41.8119 105.229C39.8605 106.095 31.5574 104.753 30.7467 104.423C30.6693 104.246 30.6239 104.057 30.6125 103.864C33.6989 104.384 39.4468 105.849 41.9349 104.669ZM35.6838 98.4072C35.6279 98.4072 31.1325 98.122 30.9759 98.094C30.9141 97.8076 30.8878 97.5147 30.8976 97.2218C30.8915 97.0929 30.9164 96.9644 30.9703 96.8472C31.6469 96.7298 35.0911 97.4063 35.7733 97.5685C35.7592 97.8495 35.7293 98.1295 35.6838 98.4072ZM38.4459 74.3645C38.0937 76.0419 34.6103 93.1793 34.04 95.7904C34.0324 95.8123 34.0171 95.8306 33.9969 95.842C33.9767 95.8534 33.9531 95.857 33.9304 95.8522C33.9078 95.8474 33.8877 95.8345 33.8739 95.8159C33.8601 95.7973 33.8535 95.7743 33.8554 95.7513C34.3139 93.3861 37.6072 76.0698 37.9874 74.2638C38.1664 73.4195 36.6623 60.2576 36.4834 58.8486H36.7797C37.596 64.1268 38.6193 73.509 38.4459 74.3645ZM95.8576 101.108C93.4925 101.292 38.8765 98.9998 38.3844 98.9383C38.267 97.4678 39.1392 87.5153 39.2679 86.0447C40.1625 82.8745 41.8678 76.6513 42.371 73.3804C42.8072 70.5232 42.0411 64.1268 41.6609 61.2416C41.7728 60.2017 41.879 59.1673 41.9908 58.1385C42.6356 58.0425 43.2701 57.8871 43.8863 57.6744C44.054 57.5961 44.2218 57.4899 44.2385 57.3109C44.3448 56.3157 43.1203 50.5343 42.9358 49.5334C43.5508 44.0875 44.1714 39.2845 44.6467 35.7844C47.7611 36.3435 51.0096 36.1478 53.7046 34.4369C56.299 32.793 56.7184 30.5229 56.0977 28.2529C57.1321 28.1522 58.2224 28.0572 59.3519 27.9677C59.2289 28.8679 59.2512 31.0429 59.7265 31.4175C60.6267 32.1332 81.8625 31.2889 83.6182 30.59C83.7047 30.56 83.7779 30.5007 83.8251 30.4223C84.0935 29.9079 84.0711 27.7552 83.9928 26.9501C85.7317 26.9501 100.208 26.8383 101.242 28.2305C102.411 29.8072 97.686 100.929 95.8576 101.08V101.108Z" fill="black"/>
<path d="M56.9252 60.0284C56.8637 59.6426 56.7351 59.5699 56.5227 59.5084C55.4044 59.1841 48.9129 58.815 48.3649 59.1841C47.817 59.5531 46.7379 63.8416 47.1181 65.1724C47.154 65.2492 47.2061 65.3174 47.2708 65.3724C47.3354 65.4274 47.4111 65.4679 47.4927 65.4911C48.8178 66.0502 55.2199 66.5702 55.9132 66.1788C56.6065 65.7874 57.0874 61.0851 56.9252 60.0284ZM55.9132 65.3681C55.8667 65.5221 55.7989 65.6689 55.7119 65.8042C55.2646 66.0558 48.2978 65.6812 47.4703 65.0605C47.0957 63.8137 48.0294 59.637 48.4712 59.3294C48.9129 59.0219 55.7846 59.609 56.5003 59.9277C56.7295 60.8615 56.2543 64.3001 55.9132 65.3681ZM54.5433 70.2046C53.9842 69.774 46.7155 69.4274 46.1564 69.7852C45.5972 70.143 44.5293 74.4092 44.9095 75.7735C44.9464 75.8497 44.9987 75.9175 45.0632 75.9723C45.1277 76.0272 45.2029 76.068 45.2841 76.0922C46.6204 76.6513 52.1447 77.0707 53.4363 76.8582C53.5207 76.855 53.6033 76.8327 53.6778 76.793C53.7524 76.7533 53.817 76.6972 53.8668 76.629C54.4203 75.863 55.1304 70.6798 54.5433 70.2046ZM53.5034 76.3997C53.0449 76.6569 46.1172 76.2823 45.2617 75.6561C44.8871 74.4092 45.8209 70.2325 46.2626 69.925C46.7043 69.6175 53.6375 70.2269 54.2861 70.5233C54.5657 71.5688 53.8724 76.1929 53.5034 76.3997ZM53.2462 80.5485C52.687 80.1236 45.4183 79.7713 44.8592 80.1291C44.3 80.487 43.2321 84.7476 43.6123 86.1063C43.6483 86.1831 43.7004 86.2513 43.765 86.3063C43.8296 86.3613 43.9053 86.4018 43.9869 86.425C45.3232 86.9841 50.8475 87.4035 52.1391 87.191C52.224 87.1871 52.3069 87.164 52.3815 87.1233C52.4561 87.0826 52.5204 87.0254 52.5696 86.9562C53.1175 86.2181 53.8388 81.0293 53.2462 80.5485ZM52.4019 86.3131C52.4019 86.3802 52.2621 86.7157 52.2006 86.7437C51.7421 87.0009 44.8144 86.6207 43.959 86C43.5899 84.7588 44.5181 80.582 44.9598 80.2689C45.4015 79.9558 52.2677 80.5485 52.9889 80.8672C53.2126 81.773 52.7821 85.1334 52.4019 86.3131Z" fill="black"/>
<path d="M54.1239 61.046C53.1231 61.9966 52.234 63.098 51.5854 63.5118C51.3562 63.6628 51.2388 63.7131 51.0263 63.6013C50.6801 63.3826 50.3862 63.0906 50.1653 62.7458C50.1525 62.7298 50.1346 62.7186 50.1146 62.7142C50.0945 62.7097 50.0736 62.7123 50.0553 62.7215C50.0369 62.7307 50.0223 62.7459 50.0138 62.7645C50.0053 62.7832 50.0035 62.8042 50.0087 62.8241C50.1963 63.2716 50.504 63.6586 50.8977 63.9423C51.0406 64.0163 51.2021 64.0468 51.3621 64.0299C51.5221 64.013 51.6736 63.9495 51.7979 63.8473C52.2542 63.5309 52.666 63.1548 53.0224 62.729C53.4575 62.2297 53.8627 61.7051 54.2357 61.1579C54.2478 61.1521 54.2584 61.1435 54.2665 61.1328C54.2746 61.1221 54.28 61.1096 54.2822 61.0964C54.2845 61.0831 54.2836 61.0696 54.2795 61.0568C54.2755 61.044 54.2684 61.0324 54.2589 61.0229C54.2494 61.0134 54.2378 61.0063 54.225 61.0022C54.2122 60.9982 54.1986 60.9972 54.1854 60.9995C54.1722 61.0018 54.1597 61.0072 54.149 61.0153C54.1383 61.0234 54.1297 61.0339 54.1239 61.046ZM51.9265 71.6416C50.7188 72.7878 49.5726 74.2416 49.0414 74.2639C48.8761 74.2321 48.7231 74.1546 48.5997 74.0403C48.007 73.5538 48.007 73.2239 47.8616 73.3078C47.851 73.3125 47.8415 73.3194 47.8336 73.3281C47.8258 73.3367 47.8199 73.3468 47.8162 73.3579C47.8125 73.3689 47.8112 73.3806 47.8123 73.3922C47.8133 73.4038 47.8168 73.4151 47.8225 73.4252C48.0294 73.9061 48.5214 74.6497 49.047 74.6609C49.7179 74.6609 50.8138 73.4196 51.2108 72.922C51.6078 72.4244 51.8986 71.9659 52.0551 71.7534C52.0699 71.7364 52.0774 71.7141 52.0758 71.6916C52.0742 71.669 52.0638 71.648 52.0467 71.6332C52.0297 71.6184 52.0074 71.6109 51.9849 71.6125C51.9623 71.6141 51.9413 71.6245 51.9265 71.6416ZM50.6237 81.9855C49.4384 83.1038 48.2642 84.5855 47.7442 84.6023C47.5757 84.5753 47.4196 84.4972 47.2969 84.3786C46.6986 83.8922 46.7378 83.5679 46.5588 83.6462C46.5485 83.652 46.5394 83.6598 46.5321 83.6691C46.5248 83.6785 46.5194 83.6892 46.5163 83.7006C46.5132 83.7121 46.5124 83.724 46.5139 83.7358C46.5155 83.7476 46.5193 83.7589 46.5253 83.7692C46.7266 84.25 47.2186 84.9937 47.7498 85.0048C48.4208 85.0048 49.5167 83.7636 49.9081 83.2659C50.2994 82.7683 50.6014 82.3098 50.7523 82.0974C50.8306 82.0135 50.702 81.9017 50.6237 81.9855ZM93.6266 62.9974C91.8206 62.8912 62.4382 61.6555 60.5763 61.5772C60.557 61.5821 60.54 61.5933 60.5278 61.609C60.5156 61.6247 60.509 61.644 60.509 61.6639C60.509 61.6837 60.5156 61.703 60.5278 61.7187C60.54 61.7344 60.557 61.7456 60.5763 61.7505C62.4717 61.8736 92.3965 63.1372 93.6322 63.1707C93.6513 63.1652 93.668 63.1535 93.6797 63.1374C93.6914 63.1213 93.6974 63.1018 93.6968 63.0819C93.6961 63.062 93.6889 63.0429 93.6762 63.0276C93.6635 63.0123 93.646 63.0017 93.6266 62.9974ZM91.4292 73.5985C89.6232 73.4923 60.2408 72.2566 58.3789 72.1728C58.3657 72.1694 58.3519 72.1691 58.3385 72.1718C58.3252 72.1746 58.3126 72.1804 58.3019 72.1888C58.2911 72.1971 58.2824 72.2078 58.2764 72.2201C58.2704 72.2323 58.2673 72.2458 58.2673 72.2594C58.2673 72.2731 58.2704 72.2865 58.2764 72.2988C58.2824 72.311 58.2911 72.3217 58.3019 72.3301C58.3126 72.3385 58.3252 72.3442 58.3385 72.347C58.3519 72.3498 58.3657 72.3495 58.3789 72.3461C60.2744 72.4691 90.1935 73.7327 91.4292 73.7719C91.4484 73.767 91.4655 73.7558 91.4777 73.7401C91.4899 73.7244 91.4965 73.7051 91.4965 73.6852C91.4965 73.6654 91.4899 73.646 91.4777 73.6304C91.4655 73.6147 91.4484 73.6035 91.4292 73.5985ZM90.1264 83.9425C88.3204 83.8363 58.938 82.6006 57.0761 82.5167C57.0569 82.5216 57.0398 82.5328 57.0276 82.5485C57.0155 82.5642 57.0089 82.5835 57.0089 82.6034C57.0089 82.6232 57.0155 82.6425 57.0276 82.6582C57.0398 82.6739 57.0569 82.6851 57.0761 82.69C58.966 82.813 88.8907 84.0767 90.1264 84.1102C90.1487 84.1102 90.17 84.1014 90.1857 84.0857C90.2015 84.0699 90.2103 84.0486 90.2103 84.0264C90.2103 84.0041 90.2015 83.9828 90.1857 83.9671C90.17 83.9513 90.1487 83.9425 90.1264 83.9425ZM93.375 66.9561C91.569 66.8554 62.1866 65.6141 60.3303 65.5359C60.3171 65.5325 60.3032 65.5322 60.2899 65.5349C60.2765 65.5377 60.264 65.5435 60.2532 65.5519C60.2425 65.5602 60.2337 65.5709 60.2277 65.5832C60.2217 65.5954 60.2186 65.6089 60.2186 65.6225C60.2186 65.6362 60.2217 65.6496 60.2277 65.6619C60.2337 65.6741 60.2425 65.6848 60.2532 65.6932C60.264 65.7016 60.2765 65.7073 60.2899 65.7101C60.3032 65.7129 60.3171 65.7126 60.3303 65.7092C62.2201 65.8322 92.1449 67.0958 93.3806 67.1294C93.3997 67.1239 93.4164 67.1121 93.4281 67.0961C93.4398 67.08 93.4458 67.0604 93.4452 67.0405C93.4445 67.0207 93.4373 67.0016 93.4246 66.9863C93.4119 66.971 93.3944 66.9603 93.375 66.9561ZM91.1888 77.5572C89.3828 77.451 60.0004 76.2153 58.1385 76.137C58.0266 76.137 58.0155 76.2992 58.1385 76.3103C60.0339 76.4333 89.9587 77.6914 91.1944 77.7305C91.2135 77.725 91.2302 77.7133 91.2419 77.6972C91.2536 77.6811 91.2596 77.6616 91.259 77.6417C91.2583 77.6218 91.2511 77.6027 91.2384 77.5874C91.2257 77.5721 91.2082 77.5615 91.1888 77.5572ZM89.886 87.9011C88.0856 87.7949 58.7032 86.5592 56.8413 86.4754C56.8176 86.4754 56.7948 86.4848 56.778 86.5016C56.7612 86.5183 56.7518 86.5411 56.7518 86.5648C56.7518 86.5885 56.7612 86.6113 56.778 86.6281C56.7948 86.6449 56.8176 86.6543 56.8413 86.6543C58.7367 86.7717 88.6559 88.0353 89.8916 88.0745C89.9107 88.069 89.9274 88.0572 89.9391 88.0411C89.9508 88.025 89.9568 88.0055 89.9562 87.9856C89.9556 87.9658 89.9483 87.9466 89.9356 87.9313C89.9229 87.916 89.9054 87.9054 89.886 87.9011ZM61.8399 54.7614C62.0133 54.6607 62.0915 54.342 62.1419 54.1296C62.8799 51.1382 63.7298 37.4395 63.5509 36.6679C63.5356 36.6164 63.5066 36.57 63.467 36.5337C63.1483 36.2429 61.387 36.2094 60.7776 36.1926C57.5849 36.1143 50.1541 36.3548 50.0702 36.433C49.8633 36.6846 46.7825 53.0952 47.1627 54.2078C47.5429 55.3205 60.5204 55.505 61.8399 54.7614ZM47.5261 54.0569C47.522 53.9973 47.522 53.9375 47.5261 53.878C47.5309 53.8958 47.5414 53.9117 47.5561 53.923C47.5707 53.9342 47.5887 53.9404 47.6072 53.9404C47.6257 53.9404 47.6437 53.9342 47.6584 53.923C47.673 53.9117 47.6836 53.8958 47.6883 53.878C47.9265 52.9602 48.3962 52.1189 49.0526 51.4346C49.8036 50.5953 50.7706 49.9783 51.8482 49.6509C52.3358 50.2831 52.8664 50.881 53.4362 51.4401C53.5648 51.5352 53.7157 51.4401 53.8723 51.3675C54.4314 52.7821 54.163 50.9537 53.8723 54.7223C53.0392 54.6943 48.2474 54.5098 47.5261 54.0569ZM53.8387 47.5262C53.5268 47.4024 53.2467 47.2099 53.0192 46.9631C52.7918 46.7163 52.6228 46.4214 52.5248 46.1004C52.4653 45.8564 52.4279 45.6075 52.413 45.3568C52.6069 45.6132 52.8775 45.8013 53.1855 45.8939C53.4934 45.9864 53.8228 45.9785 54.126 45.8714C54.4293 45.7644 54.6905 45.5636 54.8721 45.2982C55.0536 45.0328 55.146 44.7165 55.1359 44.3951H55.2366C55.0855 44.9045 55.0194 45.4353 55.0409 45.9662C55.0433 46.0446 55.0644 46.1213 55.1024 46.1899C55.2701 46.4024 55.4379 46.3968 55.723 46.352C55.7454 46.3509 55.7667 46.3418 55.7831 46.3265C55.7995 46.3111 55.8099 46.2905 55.8125 46.2682C55.8125 46.1396 55.5888 46.1955 55.4323 46.0389C55.4323 45.8488 55.4938 45.2058 55.4994 45.0437C55.4994 44.3392 55.3596 44.4174 55.5609 44.4174C55.5222 44.6906 55.5603 44.9692 55.6709 45.222C55.7815 45.4748 55.9602 45.6918 56.1871 45.8488C56.4587 46.0254 56.7778 46.1147 57.1017 46.1047C57.4255 46.0947 57.7385 45.9859 57.9987 45.7929C57.9987 45.8656 57.9428 45.9495 57.898 46.0613C57.7456 46.5645 57.4433 47.0093 57.0314 47.3361C56.3772 47.7946 55.9579 47.6325 56.0026 47.94C56.0697 48.3817 56.2206 48.6948 56.3157 49.349C55.825 49.6445 55.3526 49.9693 54.9011 50.3219C54.4694 49.9219 54.0138 49.5484 53.5368 49.2036C53.7605 48.035 54.1519 47.666 53.8387 47.5262ZM55.6447 44.054C55.6273 44.1016 55.6124 44.1502 55.6 44.1994C55.5281 44.1511 55.4434 44.1253 55.3568 44.1253C55.2702 44.1253 55.1855 44.1511 55.1136 44.1994C55.1023 44.0363 55.0554 43.8777 54.9761 43.7348C54.8969 43.5918 54.7873 43.4679 54.6551 43.3719C54.3045 43.148 53.8969 43.0296 53.4809 43.0308C53.1849 43.0173 52.8949 43.1173 52.6702 43.3104C52.828 42.5869 53.2534 41.9498 53.8611 41.5267C54.9123 40.8725 56.5449 41.0011 57.2159 42.0411C57.367 42.2511 57.4805 42.4857 57.5514 42.7345C57.5883 42.9248 57.6406 43.1118 57.7079 43.2936C57.587 43.2429 57.4585 43.2127 57.3277 43.2041C56.6009 43.1538 55.8237 43.3271 55.6447 44.0652V44.054ZM54.2357 45.4462C54.0991 45.5158 53.95 45.5574 53.7971 45.5686C53.6441 45.5798 53.4905 45.5604 53.3452 45.5114C53.2 45.4625 53.0659 45.385 52.9509 45.2835C52.836 45.1821 52.7424 45.0587 52.6758 44.9207C52.4856 44.205 52.782 43.3998 53.4865 43.3942C55.6168 43.3215 54.9794 45.1723 54.2357 45.4462ZM57.3333 43.562C58.0378 43.6403 58.2391 44.4789 57.9819 45.1723C57.9001 45.3012 57.7935 45.4127 57.6684 45.5002C57.5433 45.5878 57.4021 45.6498 57.2529 45.6825C57.1037 45.7152 56.9496 45.7181 56.7993 45.691C56.649 45.6639 56.5055 45.6073 56.3772 45.5245C55.6559 45.1779 55.1751 43.26 57.3221 43.562H57.3333ZM58.4516 44.1211L58.5914 44.0428C58.9101 44.2833 58.966 44.6914 58.4236 45.1611C58.5159 44.8388 58.5255 44.4984 58.4516 44.1714V44.1211ZM51.8371 43.8527C51.8819 43.809 51.9421 43.7845 52.0048 43.7845C52.0675 43.7845 52.1276 43.809 52.1725 43.8527C52.1992 43.8765 52.2322 43.8921 52.2676 43.8975C52.1724 44.2032 52.1532 44.5275 52.2117 44.8424C51.8147 44.602 51.496 44.2162 51.8371 43.8751V43.8527ZM56.0305 51.1214C55.7633 50.9398 55.5074 50.7419 55.2645 50.5288L56.8972 49.2036C57.0258 49.2987 57.3781 49.5615 57.5682 49.7236C56.64 50.5567 56.2486 50.9537 56.0305 51.1382V51.1214ZM54.5097 50.484C54.2187 50.6742 53.9182 50.8497 53.6095 51.0096C53.4529 50.8475 52.1278 49.3881 52.1278 49.3881C52.3459 49.2428 52.7596 49.0079 52.905 48.9296L54.5097 50.484ZM55.9131 54.7949C55.9109 53.8996 55.8001 53.0078 55.5832 52.1391C55.9523 51.4178 55.751 51.5799 55.9634 51.6302C55.9916 51.6429 56.0221 51.6494 56.0529 51.6494C56.0838 51.6494 56.1142 51.6429 56.1424 51.6302C56.6983 51.1594 57.2179 50.6472 57.6968 50.0982C59.6034 50.9425 61.1075 52.3348 61.6107 54.3924C61.4597 54.7949 56.4108 54.7949 55.9131 54.7949ZM50.1988 36.5728C51.6022 36.5337 61.8903 36.2653 63.1986 36.7909C63.3272 37.9091 62.3376 51.7477 61.7281 54.0066C61.2081 52.0496 59.7767 50.6518 57.9316 49.7851C58.0155 49.6006 57.8142 49.4888 56.9419 49.0079C56.9285 48.9995 56.913 48.995 56.8972 48.995C56.8814 48.995 56.8659 48.9995 56.8525 49.0079L56.6344 49.1421C56.5505 48.583 56.4667 48.4208 56.394 48.0238C56.7323 47.94 57.0496 47.7869 57.3258 47.5742C57.6021 47.3615 57.8312 47.0939 57.9987 46.7882C58.2043 46.4248 58.3603 46.0355 58.4628 45.6308C59.1617 45.1499 59.5475 44.4789 59.0219 43.8304C59.1729 43.5955 59.2791 43.4054 59.1673 43.1538C59.2147 43.082 59.2449 43.0003 59.2556 42.915C59.2662 42.8296 59.2571 42.743 59.2288 42.6618C59.202 42.5506 59.1606 42.4434 59.1058 42.3431C59.1627 42.2504 59.1999 42.147 59.2152 42.0394C59.2305 41.9317 59.2235 41.8221 59.1947 41.7172C59.1658 41.6124 59.1158 41.5146 59.0476 41.4299C58.9794 41.3451 58.8945 41.2754 58.7983 41.2248C58.8209 41.0885 58.8093 40.9488 58.7645 40.8181C58.7197 40.6874 58.6431 40.5699 58.5416 40.4762C58.4401 40.3825 58.317 40.3155 58.1831 40.2812C58.0493 40.2469 57.9091 40.2465 57.775 40.2799C57.727 40.1528 57.6436 40.0422 57.5346 39.9612C57.4445 39.8853 57.3404 39.828 57.2281 39.7925C57.1159 39.757 56.9977 39.744 56.8804 39.7543C56.4555 39.7878 56.6344 39.922 56.5449 39.704C56.4988 39.5991 56.4182 39.5131 56.3165 39.4602C56.2149 39.4074 56.0982 39.3908 55.9858 39.4132C55.8065 39.426 55.6351 39.4922 55.4938 39.6033C55.3263 39.4647 55.1157 39.3888 54.8983 39.3888C54.6809 39.3888 54.4703 39.4647 54.3028 39.6033C54.219 39.6928 54.2637 39.6704 54.191 39.6425C54.0076 39.5951 53.8152 39.5951 53.6319 39.6425C53.522 39.6665 53.4192 39.716 53.3318 39.7869C53.2445 39.8577 53.1749 39.9481 53.1286 40.0506C53.0381 40.034 52.9452 40.034 52.8547 40.0506C52.6727 40.1163 52.5091 40.2247 52.3777 40.3668C52.2464 40.5088 52.1511 40.6804 52.0998 40.867C52.097 40.9098 52.097 40.9527 52.0998 40.9956C51.995 41.0561 51.8942 41.1234 51.7979 41.1968C51.6927 41.3232 51.6237 41.4757 51.5981 41.6381C51.5725 41.8005 51.5913 41.9668 51.6525 42.1194C51.523 42.2113 51.4269 42.3428 51.3786 42.494C51.3494 42.6852 51.3807 42.8807 51.468 43.0532C51.501 43.0998 51.5364 43.1446 51.5743 43.1874L51.5183 43.2544C51.4819 43.3518 51.4819 43.459 51.5183 43.5564C51.4249 43.6657 51.3596 43.7962 51.3284 43.9366C51.2972 44.077 51.301 44.2229 51.3394 44.3615C51.4666 44.706 51.697 45.0028 51.9992 45.2114C51.9992 45.34 51.9992 45.5581 52.0495 45.7705C52.1033 46.2114 52.2693 46.631 52.5316 46.9894C52.794 47.3477 53.144 47.6326 53.548 47.817C53.4178 48.1829 53.3095 48.5564 53.2237 48.9352C52.9833 48.7563 52.9497 48.7116 52.8882 48.7451C51.9992 49.0974 51.77 49.2036 51.77 49.3043C49.4607 50.0479 47.856 52.1502 47.5429 53.7773C47.5597 51.3115 49.9416 37.4171 50.1988 36.5728ZM96.316 45.9271C96.2377 45.8432 68.4712 45.6699 68.4153 45.6755C68.3916 45.6755 68.3688 45.6849 68.3521 45.7017C68.3353 45.7185 68.3259 45.7412 68.3259 45.7649C68.3259 45.709 68.1134 48.2866 68.3985 48.4544C69.1534 48.8793 93.7216 49.2875 95.9526 49.0694C96.0496 49.0707 96.1441 49.0392 96.221 48.98C96.6291 48.5606 96.6179 46.1843 96.316 45.9271ZM68.4321 45.8488H68.4656C68.4656 45.8488 68.4377 45.8768 68.4321 45.8488ZM95.9414 48.6445C94.6666 48.8066 69.8691 48.5886 68.5439 48.281C68.4655 47.4722 68.4655 46.6577 68.5439 45.8488L96.0812 46.3129C96.186 47.0918 96.1386 47.8837 95.9414 48.6445ZM96.3831 41.236C96.3048 41.1521 68.5383 40.9788 68.4824 40.9844C68.4591 40.9857 68.4371 40.9956 68.4206 41.0121C68.4041 41.0286 68.3943 41.0505 68.393 41.0738C68.393 41.0179 68.1749 43.5955 68.4656 43.7633C69.2652 44.2217 93.9061 44.5852 96.0197 44.3783C96.1166 44.3796 96.2112 44.348 96.2881 44.2888C96.6962 43.8695 96.6794 41.4932 96.3831 41.236ZM68.4992 41.1577H68.5327C68.5663 41.1577 68.5048 41.1913 68.4992 41.1577ZM96.0085 43.9534C94.8064 44.1155 69.9473 43.8974 68.611 43.5843C68.5355 42.7772 68.5355 41.9648 68.611 41.1577L96.1483 41.6218C96.2503 42.3989 96.2029 43.1884 96.0085 43.9478V43.9534ZM96.4446 36.7294C96.4004 36.6938 96.3447 36.6759 96.2881 36.6791C96.2881 36.6791 68.8123 36.4666 68.6446 36.4722C68.5607 36.4722 68.4433 36.4722 68.4489 36.5672C68.4489 36.5113 68.2364 39.0889 68.5216 39.2567C69.2149 39.648 95.919 40.2128 96.344 39.7822C96.7689 39.3517 96.7298 36.9866 96.4446 36.7294ZM68.5551 36.6511H68.5887C68.6222 36.6511 68.5607 36.6791 68.5551 36.6511ZM96.0644 39.4468C94.784 39.6089 69.8691 39.3797 68.6669 39.0777C68.5801 38.2717 68.5689 37.4593 68.6334 36.6511L96.1706 37.1152C96.2856 37.8901 96.2495 38.68 96.0644 39.4412V39.4468ZM73.2071 53.85C73.537 53.6655 73.5705 53.3747 73.414 53.1902C72.9709 52.906 72.4742 52.7157 71.9546 52.6311C71.9053 52.1323 71.7281 51.6547 71.4402 51.2444C70.8811 50.7412 70.5177 51.893 70.322 52.6143C69.8523 52.6535 68.8179 52.7877 68.7396 53.2517C68.7396 53.4139 68.8514 53.5145 68.9968 53.5872C69.3265 53.7195 69.6646 53.8297 70.0088 53.9171C69.5615 54.3868 68.5551 55.4771 69.1813 55.5945C69.5392 55.6728 70.4897 55.1025 70.9426 55.0018C71.3619 55.2367 72.2677 55.9691 72.62 55.7231C72.9723 55.4771 72.469 54.6831 72.1839 54.1408C72.5324 54.0724 72.8747 53.9752 73.2071 53.85ZM78.5468 54.1016C78.8823 53.9227 78.9158 53.6319 78.7537 53.4474C78.315 53.1587 77.8191 52.9679 77.2999 52.8883C77.2506 52.3878 77.0734 51.9084 76.7855 51.4961C76.2264 50.9984 75.863 52.1502 75.6673 52.8715C75.1976 52.9107 74.1632 53.0393 74.0849 53.5089C74.057 53.6655 74.1968 53.7717 74.3421 53.8444C74.671 53.9736 75.007 54.0838 75.3486 54.1743C74.9068 54.6384 73.8948 55.7343 74.521 55.8517C74.8789 55.93 75.8574 55.3541 76.2823 55.2926C76.724 55.5386 77.613 56.2543 77.9597 56.0083C78.3064 55.7622 77.8087 54.9683 77.5292 54.4259C77.8783 54.3519 78.2192 54.2432 78.5468 54.1016ZM84.1102 54.3085C84.44 54.124 84.4736 53.8332 84.317 53.6543C83.8755 53.367 83.3782 53.1764 82.8577 53.0952C82.8109 52.5958 82.6335 52.1176 82.3433 51.7085C81.7842 51.2053 81.4207 52.3571 81.225 53.0784C80.7554 53.1231 79.721 53.2517 79.6483 53.7158C79.6483 53.878 79.7601 53.9842 79.9055 54.0513C80.233 54.1857 80.5692 54.2978 80.9119 54.3868C80.4702 54.8508 79.4582 55.9467 80.0844 56.0642C80.4422 56.1424 81.3928 55.5721 81.8457 55.4715C82.265 55.7119 83.1708 56.4388 83.5231 56.1928C83.8753 55.9467 83.3665 55.1528 83.0869 54.6104C83.4362 54.5399 83.7786 54.4389 84.1102 54.3085ZM89.9139 54.5266C90.2494 54.3476 90.2774 54.0513 90.1208 53.8724C89.6793 53.585 89.182 53.3945 88.6615 53.3132C88.6131 52.8152 88.4379 52.3378 88.1527 51.9266C87.5936 51.4234 87.2245 52.5808 87.0344 53.2965C86.5648 53.3412 85.5303 53.4698 85.4577 53.9395C85.4297 54.096 85.5695 54.2023 85.7149 54.2749C86.0437 54.4041 86.3798 54.5143 86.7213 54.6048C86.2796 55.0689 85.2676 56.1648 85.8938 56.2822C86.246 56.3605 87.2245 55.7846 87.6551 55.6895C88.08 55.93 88.9746 56.6568 89.3325 56.4108C89.6903 56.1648 89.1815 55.3708 88.9019 54.8285C89.2479 54.7595 89.5867 54.6584 89.9139 54.5266ZM88.3931 54.7223C88.3931 54.9291 88.8963 55.6113 89.0193 56.053C88.9187 56.0083 88.7789 55.9188 88.6671 55.8573C87.7725 55.382 87.806 55.2255 87.437 55.3541C87.1518 55.4547 86.2069 55.9635 85.9553 56.0083C86.0114 55.8252 86.0984 55.6531 86.2125 55.4994C86.8275 54.5881 87.1295 54.5769 86.7437 54.3812C86.3755 54.2728 86.0224 54.1188 85.6925 53.9227C85.7931 53.6655 86.8108 53.5928 87.1574 53.5872C87.3531 53.5872 87.286 53.4362 87.5991 52.6982C87.6694 52.5152 87.7634 52.3423 87.8787 52.1838C87.9846 52.3378 88.0604 52.5104 88.1024 52.6926C88.3092 53.4027 88.1974 53.5984 88.4323 53.6487C88.8898 53.7394 89.3335 53.8897 89.7518 54.096C89.6642 54.1599 89.5656 54.2072 89.4611 54.2358C88.7677 54.4427 88.3763 54.4203 88.3931 54.7223ZM95.6562 53.7997C95.2689 53.6298 94.8664 53.4968 94.4541 53.4027C94.3989 53.0506 94.3051 52.7056 94.1745 52.3739C93.9397 51.8148 93.5595 51.7085 93.2576 52.2117C93.0655 52.586 92.9137 52.9796 92.8047 53.3859C92.4244 53.4126 92.0488 53.4858 91.6864 53.604C91.3677 53.727 91.0937 53.9842 91.267 54.2078C91.6335 54.451 92.0468 54.6148 92.4804 54.6887C92.147 55.0334 91.8457 55.4077 91.5802 55.807C91.323 56.2543 91.4795 56.5282 92.0442 56.3661C92.4748 56.2319 93.0898 55.902 93.4141 55.807C93.6937 55.9635 94.5324 56.5953 94.9294 56.5786C94.9697 56.5801 95.0099 56.5734 95.0475 56.5588C95.0852 56.5443 95.1194 56.5222 95.1482 56.4939C95.177 56.4656 95.1997 56.4318 95.215 56.3944C95.2302 56.3571 95.2377 56.317 95.2369 56.2766C95.1324 55.8029 94.943 55.3521 94.6777 54.9459C95.0269 54.8775 95.3693 54.7784 95.701 54.6496C96.0588 54.4483 96.1706 54.0625 95.6562 53.7997ZM94.3143 54.616C93.9006 54.8117 94.6106 55.4603 94.8064 56.1704C94.5491 56.053 93.621 55.4771 93.5539 55.4491C93.252 55.3205 92.5475 55.8461 91.9156 56.0642L91.7479 56.1257C91.9771 55.6132 92.293 55.1441 92.6816 54.739C92.8997 54.4986 91.7088 54.3253 91.4795 54.0625C91.5242 53.9451 91.8262 53.8612 91.9436 53.8332C92.7599 53.6431 93.0339 53.8332 93.1066 53.5984C93.238 53.1514 93.4258 52.723 93.6657 52.3236C93.8814 52.7211 94.0128 53.1589 94.0515 53.6096C94.0851 53.8444 94.2808 53.7494 95.0747 54.0289C95.2392 54.0783 95.3969 54.1478 95.5444 54.2358C95.3487 54.3812 94.5939 54.4818 94.3143 54.616ZM71.0377 24.8926C71.6419 24.9413 72.242 24.7573 72.715 24.3782C74.1185 23.1257 72.1559 20.7438 70.2101 22.0242C68.6893 23.0251 69.6175 24.8366 71.0377 24.8926ZM70.417 22.3653C70.797 22.0872 71.2699 21.967 71.7366 22.0298C71.9697 22.0637 72.192 22.151 72.3859 22.2849C72.5799 22.4187 72.7403 22.5954 72.8548 22.8014C73.235 23.8917 72.223 24.5459 71.0488 24.4788C70.0256 24.4229 69.2988 23.1313 70.417 22.3653ZM23.0026 49.5C22.8908 49.4552 23.0026 49.5 22.1975 50.3163C21.3923 51.1326 20.6431 51.5799 20.7158 51.7141C20.7885 51.8483 21.465 51.5128 21.5768 51.4513C21.9361 51.2262 22.2602 50.9492 22.5385 50.6294C22.7342 50.4002 23.2095 49.5894 23.0026 49.5ZM31.6356 13.5813C31.6636 13.4471 31.289 13.3297 31.015 13.3633C30.4111 13.4415 30.1595 13.9224 30.2881 14.0063C30.7592 13.9469 31.2157 13.803 31.6356 13.5813ZM32.9887 15.6557C33.1472 15.7161 33.3189 15.7334 33.4863 15.706C33.561 15.6917 33.6328 15.6653 33.6988 15.6277C33.7661 15.5968 33.8221 15.5458 33.8591 15.4817C33.8962 15.4176 33.9125 15.3436 33.9057 15.2699C33.9057 14.7555 33.19 13.6205 32.9999 13.7435C32.9328 13.7826 32.9496 13.8106 33.0558 14.1628C33.1239 14.4037 33.2099 14.6392 33.313 14.8673C33.3721 15.0007 33.4189 15.1392 33.4528 15.2811C33.3367 15.3883 33.1902 15.4567 33.0334 15.4768C33.0217 15.4738 33.0095 15.4732 32.9975 15.475C32.9855 15.4768 32.974 15.4809 32.9636 15.4872C32.9533 15.4934 32.9442 15.5016 32.937 15.5113C32.9298 15.5211 32.9246 15.5321 32.9216 15.5439C32.9187 15.5556 32.9181 15.5678 32.9199 15.5798C32.9217 15.5918 32.9258 15.6033 32.932 15.6137C32.9382 15.6241 32.9465 15.6331 32.9562 15.6403C32.9659 15.6475 32.977 15.6528 32.9887 15.6557ZM32.7986 17.8139C32.836 17.8995 32.8917 17.9757 32.9618 18.0374C33.0318 18.099 33.1146 18.1445 33.2042 18.1706C33.2938 18.1967 33.388 18.2029 33.4803 18.1886C33.5725 18.1743 33.6605 18.1399 33.738 18.0879C33.7592 18.0792 33.7766 18.0631 33.7869 18.0425C33.7972 18.0219 33.7996 17.9983 33.7939 17.9761C33.7491 17.8475 33.6373 18.0096 33.3522 17.8475C33.2931 17.8116 33.2438 17.7617 33.2087 17.7022C33.1736 17.6427 33.1537 17.5755 33.1509 17.5064C33.1541 17.434 33.1727 17.3632 33.2054 17.2986C33.2382 17.234 33.2844 17.1771 33.341 17.1318C33.3918 17.1049 33.4484 17.0908 33.5059 17.0908C33.5634 17.0908 33.62 17.1049 33.6709 17.1318C33.7603 17.2045 33.861 17.0647 33.7715 16.9976C33.2347 16.377 32.4799 17.1653 32.7986 17.8139ZM34.107 41.7448C33.9758 41.7472 33.8472 41.7821 33.7328 41.8464C33.6183 41.9106 33.5216 42.0022 33.4513 42.113C33.3809 42.2238 33.3391 42.3503 33.3297 42.4812C33.3202 42.6121 33.3433 42.7433 33.3969 42.8631C33.7659 43.6067 35.0351 43.3327 35.0128 42.5276C35.008 42.4155 34.9804 42.3057 34.9316 42.2047C34.8828 42.1037 34.8139 42.0138 34.729 41.9405C34.6442 41.8671 34.5452 41.812 34.4382 41.7783C34.3313 41.7447 34.2185 41.7333 34.107 41.7448ZM34.5934 42.7009C34.5868 42.7556 34.5695 42.8085 34.5425 42.8565C34.5154 42.9045 34.4792 42.9467 34.4358 42.9807C34.3925 43.0147 34.3429 43.0399 34.2898 43.0547C34.2367 43.0695 34.1813 43.0737 34.1265 43.0671C34.0718 43.0605 34.019 43.0432 33.971 43.0162C33.923 42.9891 33.8807 42.9529 33.8467 42.9096C33.8127 42.8662 33.7876 42.8166 33.7728 42.7635C33.7579 42.7104 33.7537 42.655 33.7603 42.6003C33.7603 42.5491 33.7705 42.4985 33.7902 42.4513C33.8099 42.4041 33.8389 42.3614 33.8753 42.3255C33.9117 42.2896 33.9549 42.2613 34.0024 42.2422C34.0498 42.2232 34.1006 42.2137 34.1517 42.2145C34.2161 42.2075 34.2812 42.2156 34.3419 42.238C34.4027 42.2605 34.4574 42.2966 34.5018 42.3438C34.5462 42.3909 34.5791 42.4477 34.5979 42.5096C34.6167 42.5716 34.6209 42.6371 34.6102 42.7009H34.5934ZM33.956 45.5357C33.8243 45.5367 33.6949 45.5707 33.5796 45.6346C33.4644 45.6985 33.367 45.7902 33.2964 45.9014C33.2258 46.0127 33.1842 46.1398 33.1753 46.2713C33.1665 46.4027 33.1908 46.5343 33.2459 46.654C33.6094 47.3864 34.8842 47.1292 34.8618 46.3185C34.8563 46.2067 34.8281 46.0972 34.7791 45.9967C34.73 45.8961 34.6611 45.8065 34.5764 45.7333C34.4917 45.6601 34.3931 45.6049 34.2864 45.5709C34.1798 45.537 34.0674 45.525 33.956 45.5357ZM34.4425 46.4918C34.4442 46.5522 34.433 46.6122 34.4097 46.668C34.3864 46.7237 34.3515 46.7738 34.3073 46.815C34.2631 46.8562 34.2107 46.8874 34.1534 46.9067C34.0962 46.926 34.0355 46.9329 33.9754 46.9269C33.9153 46.9209 33.8572 46.9021 33.8049 46.8719C33.7526 46.8416 33.7074 46.8006 33.6722 46.7515C33.637 46.7024 33.6128 46.6463 33.6009 46.5871C33.5891 46.5279 33.5901 46.4668 33.6038 46.408C33.6052 46.3051 33.6471 46.207 33.7204 46.1348C33.7936 46.0626 33.8923 46.0221 33.9952 46.0222C34.0568 46.0185 34.1184 46.0284 34.1759 46.0511C34.2333 46.0737 34.2851 46.1086 34.3277 46.1533C34.3702 46.198 34.4026 46.2514 34.4224 46.3099C34.4422 46.3684 34.4491 46.4304 34.4425 46.4918ZM31.6077 14.3361C31.6077 14.4256 31.6412 14.5151 31.6748 14.7052C31.6808 14.7416 31.6941 14.7764 31.7137 14.8077C31.7333 14.839 31.759 14.8661 31.7891 14.8874C31.8193 14.9087 31.8534 14.9238 31.8894 14.9319C31.9254 14.94 31.9627 14.9408 31.9991 14.9344C32.0715 14.9221 32.1361 14.8817 32.179 14.8221C32.2219 14.7624 32.2396 14.6883 32.2283 14.6157C32.2283 14.5151 32.178 14.3753 32.1668 14.2746C32.1586 14.2005 32.1214 14.1326 32.0632 14.086C32.005 14.0393 31.9306 14.0177 31.8565 14.0258C31.7823 14.034 31.7145 14.0713 31.6678 14.1295C31.6211 14.1876 31.5995 14.262 31.6077 14.3361ZM34.0231 14.2635C34.0326 14.3291 34.0656 14.3892 34.116 14.4323C34.1664 14.4755 34.2307 14.499 34.2971 14.4983C34.3376 14.4979 34.3776 14.4888 34.4143 14.4718C34.451 14.4547 34.4837 14.43 34.5102 14.3993C34.5366 14.3687 34.5562 14.3327 34.5677 14.2938C34.5792 14.255 34.5822 14.2141 34.5766 14.174C34.5319 13.928 34.5207 13.9 34.5096 13.8329C34.5007 13.7588 34.4627 13.6912 34.4039 13.6451C34.3452 13.5989 34.2706 13.578 34.1964 13.5869C34.1223 13.5958 34.0547 13.6338 34.0086 13.6925C33.9624 13.7512 33.9415 13.8259 33.9504 13.9C33.9672 13.9783 33.9896 14.0678 34.0231 14.2635ZM42.3598 50.2212C42.4269 50.2883 42.5331 50.1877 42.466 50.1206C41.1129 48.4935 40.7886 46.8497 41.029 44.7921C41.0321 44.7812 41.0327 44.7699 41.0306 44.7588C41.0285 44.7477 41.0239 44.7373 41.0172 44.7283C41.0104 44.7193 41.0016 44.7121 40.9916 44.707C40.9815 44.702 40.9704 44.6994 40.9591 44.6994C40.9479 44.6994 40.9368 44.702 40.9267 44.707C40.9167 44.7121 40.9079 44.7193 40.9011 44.7283C40.8943 44.7373 40.8897 44.7477 40.8877 44.7588C40.8856 44.7699 40.8862 44.7812 40.8892 44.7921C40.3189 46.8664 40.7159 48.7339 42.3598 50.2212Z" fill="black"/>
<path d="M53.7885 44.1714C53.7151 44.1635 53.6416 44.185 53.584 44.231C53.5264 44.2771 53.4894 44.3441 53.481 44.4174V44.7864C53.481 44.8606 53.5104 44.9317 53.5628 44.9841C53.6153 45.0365 53.6864 45.066 53.7605 45.066C53.8347 45.066 53.9058 45.0365 53.9582 44.9841C54.0106 44.9317 54.0401 44.8606 54.0401 44.7864V44.4901C54.0456 44.4525 54.0433 44.4141 54.0335 44.3774C54.0236 44.3407 54.0064 44.3064 53.9829 44.2766C53.9593 44.2468 53.9299 44.222 53.8965 44.204C53.8631 44.1859 53.8263 44.1748 53.7885 44.1714ZM56.8469 45.1051C56.883 45.1098 56.9195 45.1073 56.9546 45.0977C56.9896 45.0881 57.0224 45.0717 57.051 45.0493C57.0796 45.0269 57.1035 44.9991 57.1213 44.9674C57.139 44.9357 57.1503 44.9008 57.1545 44.8647V44.5013C57.1545 44.4271 57.125 44.356 57.0726 44.3036C57.0201 44.2512 56.949 44.2217 56.8749 44.2217C56.8012 44.2231 56.7309 44.253 56.6788 44.3052C56.6267 44.3573 56.5968 44.4276 56.5953 44.5013V44.7976C56.5915 44.8344 56.5949 44.8715 56.6055 44.9069C56.6161 44.9423 56.6336 44.9753 56.657 45.0038C56.6804 45.0324 56.7092 45.0561 56.7418 45.0735C56.7744 45.0909 56.8101 45.1016 56.8469 45.1051ZM54.5209 47.0174C54.9782 47.1625 55.4644 47.1913 55.9355 47.1012C55.9915 47.1012 55.9859 47.0118 55.9355 47.0174L55.5833 46.967C55.2354 46.9381 54.8856 46.9381 54.5377 46.967C54.4818 46.9223 54.465 47.0118 54.5209 47.0174Z" fill="black"/>
</svg>
